<?xml version="1.0" ?><!DOCTYPE svg  PUBLIC '-//W3C//DTD SVG 1.1//EN'  'http://www.w3.org/Graphics/SVG/1.1/DTD/svg11.dtd'><svg height="48px" id="Layer_1" style="enable-background:new 0 0 48 48;" version="1.1" viewBox="0 0 48 48" width="48px" xml:space="preserve" xmlns="http://www.w3.org/2000/svg" xmlns:xlink="http://www.w3.org/1999/xlink"><circle cx="20.061" cy="19.778" r="9.175" style="fill:none;stroke:#231F20;stroke-miterlimit:10;"/><circle cx="20.09" cy="19.689" r="6.546" style="fill:none;stroke:#231F20;stroke-miterlimit:10;"/><g><path d="M27.956,24.45l7.415,7.431c0.777,0.779,0.777,2.054,0.002,2.833   l-0.391,0.391c-0.775,0.779-2.048,0.78-2.826,0.003l-7.442-7.436" style="fill:none;stroke:#231F20;stroke-miterlimit:10;"/></g><line style="fill:none;stroke:#231F20;stroke-miterlimit:10;" x1="31.897" x2="34.63" y1="34.43" y2="31.697"/><line style="fill:none;stroke:#231F20;stroke-miterlimit:10;" x1="30.146" x2="32.879" y1="32.748" y2="30.016"/><path d="M19.732,14.854l0.056,1.222L19.7,16.08c-2.044,0.092-3.623,1.829-3.532,3.863l0.002,0.039  l-1.095,0.049c-0.012-0.029-0.014-0.067-0.016-0.098c-0.059-1.34,0.435-2.577,1.275-3.498c0.841-0.919,2.028-1.521,3.368-1.581  L19.732,14.854z" style="fill:#231F20;"/></svg>